<svg width="91" height="170" viewBox="0 0 91 170" fill="none" xmlns="http://www.w3.org/2000/svg">
<rect x="86.0439" y="1" width="169" height="86.044" rx="20" transform="rotate(90 86.0439 1)" fill="black"/>
<path d="M66.5479 37.1175C66.5479 40.4455 65.7159 43.5175 64.0519 46.3335C62.4306 49.1495 60.2119 51.3682 57.3959 52.9895C54.5799 54.6535 51.5079 55.4855 48.1799 55.4855H38.4519C35.1239 55.4855 32.0519 54.6535 29.2359 52.9895C26.4199 51.3682 24.1799 49.1495 22.5159 46.3335C20.8946 43.5175 20.0839 40.4455 20.0839 37.1175C20.0839 33.7895 20.8946 30.7175 22.5159 27.9015C24.1799 25.0855 26.4199 22.8455 29.2359 21.1815C32.0519 19.5602 35.1239 18.7495 38.4519 18.7495H48.1799C51.5079 18.7495 54.5799 19.5602 57.3959 21.1815C60.2119 22.8455 62.4306 25.0855 64.0519 27.9015C65.7159 30.7175 66.5479 33.7895 66.5479 37.1175ZM38.4519 21.1175C35.5506 21.1175 32.8626 21.8215 30.3879 23.2295C27.9559 24.6802 26.0146 26.6215 24.5639 29.0535C23.1559 31.5282 22.4519 34.2162 22.4519 37.1175C22.4519 40.0188 23.1559 42.6855 24.5639 45.1175C26.0146 47.5922 27.9559 49.5335 30.3879 50.9415C32.8626 52.3922 35.5506 53.1175 38.4519 53.1175H48.1799C51.0813 53.1175 53.7479 52.3922 56.1799 50.9415C58.6546 49.5335 60.5959 47.5922 62.0039 45.1175C63.4546 42.6855 64.1799 40.0188 64.1799 37.1175C64.1799 34.2162 63.4546 31.5282 62.0039 29.0535C60.5959 26.6215 58.6546 24.6802 56.1799 23.2295C53.7479 21.8215 51.0813 21.1175 48.1799 21.1175H38.4519ZM48.2439 65.9325C51.5719 65.9325 54.6653 66.7645 57.5239 68.4285C60.3826 70.0925 62.6439 72.3325 64.3079 75.1485C65.9719 78.0072 66.8039 81.1218 66.8039 84.4925C66.8039 87.8632 65.9719 90.9565 64.3079 93.7725C62.6439 96.6312 60.3826 98.8925 57.5239 100.557C54.6653 102.221 51.5719 103.053 48.2439 103.053H38.3879C35.0599 103.053 31.9666 102.221 29.1079 100.557C26.2493 98.8925 23.9879 96.6312 22.3239 93.7725C20.6599 90.9565 19.8279 87.8632 19.8279 84.4925C19.8279 81.1218 20.6599 78.0072 22.3239 75.1485C23.9879 72.3325 26.2493 70.0925 29.1079 68.4285C31.9666 66.7645 35.0599 65.9325 38.3879 65.9325H48.2439ZM38.3879 77.5805C36.3399 77.5805 34.5906 78.2205 33.1399 79.5005C31.6893 80.7805 30.9639 82.4445 30.9639 84.4925C30.9639 86.4978 31.6893 88.1405 33.1399 89.4205C34.5906 90.7005 36.3399 91.3405 38.3879 91.3405H48.3079C50.3986 91.3405 52.1479 90.7005 53.5559 89.4205C54.9639 88.1405 55.6679 86.4978 55.6679 84.4925C55.6679 82.4445 54.9639 80.7805 53.5559 79.5005C52.1479 78.2205 50.3986 77.5805 48.3079 77.5805H38.3879ZM66.5479 131.868C66.5479 135.196 65.7159 138.268 64.0519 141.083C62.4306 143.9 60.2119 146.118 57.3959 147.74C54.5799 149.404 51.5079 150.236 48.1799 150.236H38.4519C35.1239 150.236 32.0519 149.404 29.2359 147.74C26.4199 146.118 24.1799 143.9 22.5159 141.083C20.8946 138.268 20.0839 135.196 20.0839 131.868C20.0839 128.54 20.8946 125.468 22.5159 122.652C24.1799 119.836 26.4199 117.596 29.2359 115.932C32.0519 114.31 35.1239 113.5 38.4519 113.5H48.1799C51.5079 113.5 54.5799 114.31 57.3959 115.932C60.2119 117.596 62.4306 119.836 64.0519 122.652C65.7159 125.468 66.5479 128.54 66.5479 131.868ZM38.4519 115.868C35.5506 115.868 32.8626 116.572 30.3879 117.98C27.9559 119.43 26.0146 121.372 24.5639 123.804C23.1559 126.278 22.4519 128.966 22.4519 131.868C22.4519 134.769 23.1559 137.436 24.5639 139.868C26.0146 142.342 27.9559 144.284 30.3879 145.692C32.8626 147.142 35.5506 147.868 38.4519 147.868H48.1799C51.0813 147.868 53.7479 147.142 56.1799 145.692C58.6546 144.284 60.5959 142.342 62.0039 139.868C63.4546 137.436 64.1799 134.769 64.1799 131.868C64.1799 128.966 63.4546 126.278 62.0039 123.804C60.5959 121.372 58.6546 119.43 56.1799 117.98C53.7479 116.572 51.0813 115.868 48.1799 115.868H38.4519Z" fill="#FFF0CA"/>
</svg>
