<svg width="479" height="71" viewBox="0 0 479 71" fill="none" xmlns="http://www.w3.org/2000/svg">
<path d="M0.52 69V2.184H25.384C30.248 2.184 34.728 3.4 38.824 5.832C42.984 8.264 46.28 11.56 48.712 15.72C51.144 19.816 52.36 24.296 52.36 29.16V42.024C52.36 46.888 51.144 51.4 48.712 55.56C46.28 59.656 42.984 62.92 38.824 65.352C34.728 67.784 30.248 69 25.384 69H0.52ZM67.7425 28.2C67.7425 23.208 68.9905 18.568 71.4865 14.28C73.9825 9.992 77.3425 6.6 81.5665 4.10399C85.8545 1.608 90.5265 0.359997 95.5825 0.359997C100.639 0.359997 105.279 1.608 109.503 4.10399C113.791 6.6 117.183 9.992 119.679 14.28C122.175 18.568 123.423 23.208 123.423 28.2V42.984C123.423 47.976 122.175 52.616 119.679 56.904C117.183 61.192 113.791 64.584 109.503 67.08C105.279 69.576 100.639 70.824 95.5825 70.824C90.5265 70.824 85.8545 69.576 81.5665 67.08C77.3425 64.584 73.9825 61.192 71.4865 56.904C68.9905 52.616 67.7425 47.976 67.7425 42.984V28.2ZM85.2145 42.984C85.2145 46.056 86.1745 48.68 88.0945 50.856C90.0145 53.032 92.5105 54.12 95.5825 54.12C98.5905 54.12 101.055 53.032 102.975 50.856C104.895 48.68 105.855 46.056 105.855 42.984V28.104C105.855 24.968 104.895 22.344 102.975 20.232C101.055 18.12 98.5905 17.064 95.5825 17.064C92.5105 17.064 90.0145 18.12 88.0945 20.232C86.1745 22.344 85.2145 24.968 85.2145 28.104V42.984ZM143.221 69H139.669V2.184H143.509L166.837 43.368L190.069 2.184H193.621V69H190.069V9.288L168.469 47.4H165.109L143.221 8.808V69ZM259.404 2.184V5.736H239.436V65.448H259.404V69H216.108V65.448H235.98V5.736H216.108V2.184H259.404ZM282.658 69V2.184H286.402L333.058 47.496V2.184H336.61V69H333.058V52.488L286.21 6.792V69H282.658ZM351.993 28.2C351.993 23.208 353.241 18.568 355.737 14.28C358.233 9.992 361.593 6.6 365.817 4.10399C370.105 1.608 374.777 0.359997 379.833 0.359997C384.889 0.359997 389.529 1.608 393.753 4.10399C398.041 6.6 401.433 9.992 403.929 14.28C406.425 18.568 407.673 23.208 407.673 28.2V42.984C407.673 47.976 406.425 52.616 403.929 56.904C401.433 61.192 398.041 64.584 393.753 67.08C389.529 69.576 384.889 70.824 379.833 70.824C374.777 70.824 370.105 69.576 365.817 67.08C361.593 64.584 358.233 61.192 355.737 56.904C353.241 52.616 351.993 47.976 351.993 42.984V28.2ZM369.465 42.984C369.465 46.056 370.425 48.68 372.345 50.856C374.265 53.032 376.761 54.12 379.833 54.12C382.841 54.12 385.305 53.032 387.225 50.856C389.145 48.68 390.105 46.056 390.105 42.984V28.104C390.105 24.968 389.145 22.344 387.225 20.232C385.305 18.12 382.841 17.064 379.833 17.064C376.761 17.064 374.265 18.12 372.345 20.232C370.425 22.344 369.465 24.968 369.465 28.104V42.984ZM423.055 28.2C423.055 23.208 424.303 18.568 426.799 14.28C429.295 9.992 432.655 6.6 436.879 4.10399C441.167 1.608 445.839 0.359997 450.895 0.359997C455.951 0.359997 460.591 1.608 464.815 4.10399C469.103 6.6 472.495 9.992 474.991 14.28C477.487 18.568 478.735 23.208 478.735 28.2V42.984C478.735 47.976 477.487 52.616 474.991 56.904C472.495 61.192 469.103 64.584 464.815 67.08C460.591 69.576 455.951 70.824 450.895 70.824C445.839 70.824 441.167 69.576 436.879 67.08C432.655 64.584 429.295 61.192 426.799 56.904C424.303 52.616 423.055 47.976 423.055 42.984V28.2ZM440.527 42.984C440.527 46.056 441.487 48.68 443.407 50.856C445.327 53.032 447.823 54.12 450.895 54.12C453.903 54.12 456.367 53.032 458.287 50.856C460.207 48.68 461.167 46.056 461.167 42.984V28.104C461.167 24.968 460.207 22.344 458.287 20.232C456.367 18.12 453.903 17.064 450.895 17.064C447.823 17.064 445.327 18.12 443.407 20.232C441.487 22.344 440.527 24.968 440.527 28.104V42.984Z" fill="black"/>
</svg>
