<svg width="169" height="87" viewBox="0 0 169 87" fill="none" xmlns="http://www.w3.org/2000/svg">
<rect width="169" height="87" rx="20" fill="#FFF0CA"/>
<path d="M37.1175 23.496C40.4455 23.496 43.5175 24.328 46.3335 25.992C49.1495 27.6133 51.3682 29.832 52.9895 32.648C54.6535 35.464 55.4855 38.536 55.4855 41.864V51.592C55.4855 54.92 54.6535 57.992 52.9895 60.808C51.3682 63.624 49.1495 65.864 46.3335 67.528C43.5175 69.1493 40.4455 69.96 37.1175 69.96C33.7895 69.96 30.7175 69.1493 27.9015 67.528C25.0855 65.864 22.8455 63.624 21.1815 60.808C19.5602 57.992 18.7495 54.92 18.7495 51.592V41.864C18.7495 38.536 19.5602 35.464 21.1815 32.648C22.8455 29.832 25.0855 27.6133 27.9015 25.992C30.7175 24.328 33.7895 23.496 37.1175 23.496ZM21.1175 51.592C21.1175 54.4933 21.8215 57.1813 23.2295 59.656C24.6802 62.088 26.6215 64.0293 29.0535 65.48C31.5282 66.888 34.2162 67.592 37.1175 67.592C40.0188 67.592 42.6855 66.888 45.1175 65.48C47.5922 64.0293 49.5335 62.088 50.9415 59.656C52.3922 57.1813 53.1175 54.4933 53.1175 51.592V41.864C53.1175 38.9627 52.3922 36.296 50.9415 33.864C49.5335 31.3893 47.5922 29.448 45.1175 28.04C42.6855 26.5893 40.0188 25.864 37.1175 25.864C34.2162 25.864 31.5282 26.5893 29.0535 28.04C26.6215 29.448 24.6802 31.3893 23.2295 33.864C21.8215 36.296 21.1175 38.9627 21.1175 41.864V51.592ZM65.9325 41.8C65.9325 38.472 66.7645 35.3787 68.4285 32.52C70.0925 29.6613 72.3325 27.4 75.1485 25.736C78.0072 24.072 81.1218 23.24 84.4925 23.24C87.8632 23.24 90.9565 24.072 93.7725 25.736C96.6312 27.4 98.8925 29.6613 100.557 32.52C102.221 35.3787 103.053 38.472 103.053 41.8V51.656C103.053 54.984 102.221 58.0773 100.557 60.936C98.8925 63.7947 96.6312 66.056 93.7725 67.72C90.9565 69.384 87.8632 70.216 84.4925 70.216C81.1218 70.216 78.0072 69.384 75.1485 67.72C72.3325 66.056 70.0925 63.7947 68.4285 60.936C66.7645 58.0773 65.9325 54.984 65.9325 51.656V41.8ZM77.5805 51.656C77.5805 53.704 78.2205 55.4533 79.5005 56.904C80.7805 58.3547 82.4445 59.08 84.4925 59.08C86.4978 59.08 88.1405 58.3547 89.4205 56.904C90.7005 55.4533 91.3405 53.704 91.3405 51.656V41.736C91.3405 39.6453 90.7005 37.896 89.4205 36.488C88.1405 35.08 86.4978 34.376 84.4925 34.376C82.4445 34.376 80.7805 35.08 79.5005 36.488C78.2205 37.896 77.5805 39.6453 77.5805 41.736V51.656ZM131.868 23.496C135.196 23.496 138.268 24.328 141.083 25.992C143.9 27.6133 146.118 29.832 147.74 32.648C149.404 35.464 150.236 38.536 150.236 41.864V51.592C150.236 54.92 149.404 57.992 147.74 60.808C146.118 63.624 143.9 65.864 141.083 67.528C138.268 69.1493 135.196 69.96 131.868 69.96C128.54 69.96 125.468 69.1493 122.652 67.528C119.836 65.864 117.596 63.624 115.932 60.808C114.31 57.992 113.5 54.92 113.5 51.592V41.864C113.5 38.536 114.31 35.464 115.932 32.648C117.596 29.832 119.836 27.6133 122.652 25.992C125.468 24.328 128.54 23.496 131.868 23.496ZM115.868 51.592C115.868 54.4933 116.572 57.1813 117.98 59.656C119.43 62.088 121.372 64.0293 123.804 65.48C126.278 66.888 128.966 67.592 131.868 67.592C134.769 67.592 137.436 66.888 139.868 65.48C142.342 64.0293 144.284 62.088 145.692 59.656C147.142 57.1813 147.868 54.4933 147.868 51.592V41.864C147.868 38.9627 147.142 36.296 145.692 33.864C144.284 31.3893 142.342 29.448 139.868 28.04C137.436 26.5893 134.769 25.864 131.868 25.864C128.966 25.864 126.278 26.5893 123.804 28.04C121.372 29.448 119.43 31.3893 117.98 33.864C116.572 36.296 115.868 38.9627 115.868 41.864V51.592Z" fill="black"/>
</svg>
